<svg id="Layer_1" data-name="Layer 1" xmlns="http://www.w3.org/2000/svg" viewBox="0 0 395.57 116.08"><defs><style>.cls-1{fill:#fff;}</style></defs><g id="text"><path class="cls-1" d="M117.46,31.8V57.21h8.71v4.2H113V31.8Z"/><path class="cls-1" d="M130.86,46.47a14.52,14.52,0,0,1,4.58-10.74,15.09,15.09,0,0,1,11-4.49,15.5,15.5,0,0,1,15.4,15.4,14.58,14.58,0,0,1-4.56,10.84,15.65,15.65,0,0,1-21.37.5A14.59,14.59,0,0,1,130.86,46.47Zm4.51.06a11,11,0,0,0,18.74,8,10.88,10.88,0,0,0,3.2-7.94,10.85,10.85,0,0,0-3.16-7.94,10.44,10.44,0,0,0-7.79-3.22,10.56,10.56,0,0,0-7.81,3.22A10.68,10.68,0,0,0,135.37,46.53Z"/><path class="cls-1" d="M170.58,61.41V31.8H175a19.38,19.38,0,0,1,4.74.46,7.13,7.13,0,0,1,3,1.55,8.06,8.06,0,0,1,2,2.82,8.52,8.52,0,0,1,.75,3.45,7,7,0,0,1-2.44,5.39,7.2,7.2,0,0,1,3.72,2.82,8.39,8.39,0,0,1-4.39,12.56,19.27,19.27,0,0,1-5,.56Zm4.47-16.9h1.4a5.17,5.17,0,0,0,3.65-1.1,4.3,4.3,0,0,0,1.16-3.25A4.08,4.08,0,0,0,180.07,37a5,5,0,0,0-3.45-1.08h-1.57v8.6Zm0,12.7h2.76A6.88,6.88,0,0,0,182.26,56a4.11,4.11,0,0,0,1.5-3.26,4.17,4.17,0,0,0-1.44-3.22q-1.4-1.29-5-1.29h-2.26Z"/><path class="cls-1" d="M195.24,46.47a14.52,14.52,0,0,1,4.58-10.74,15.09,15.09,0,0,1,11-4.49,15.5,15.5,0,0,1,15.4,15.4,14.58,14.58,0,0,1-4.56,10.84,15.65,15.65,0,0,1-21.37.5A14.59,14.59,0,0,1,195.24,46.47Zm4.51.06a11,11,0,0,0,18.74,8,10.88,10.88,0,0,0,3.2-7.94,10.85,10.85,0,0,0-3.16-7.94,10.44,10.44,0,0,0-7.79-3.22,10.56,10.56,0,0,0-7.81,3.22A10.68,10.68,0,0,0,199.75,46.53Z"/></g><path class="cls-1" d="M240.25,61.68V34.39h-6.89V31.68H250.1v2.71h-6.85V61.68Z"/><path class="cls-1" d="M257.52,61.68v-30h3v30Z"/><path class="cls-1" d="M298.91,53.81a15.88,15.88,0,0,1-13.82,8.39,15.51,15.51,0,1,1,0-31c5.55,0,11.35,3.2,13.74,8.19h-3.37A12.66,12.66,0,0,0,285,33.91a13,13,0,0,0-12.6,12.85,13.06,13.06,0,0,0,12.65,12.73c4.09,0,7.78-2.07,10.5-5.68Z"/><path class="cls-1" d="M324.85,61.68l-10-13L311,53.45v8.23h-3v-30h3V48.91H311l13.74-17.23h3.85L316.74,46.31l11.88,15.37Z"/><path class="cls-1" d="M335.51,61.68v-30h16.42v2.71H338.51V45.18h13v2.71h-13V59h13.42v2.72Z"/><path class="cls-1" d="M365.59,61.68V34.39h-6.9V31.68h16.75v2.71h-6.85V61.68Z"/><path class="cls-1" d="M125.65,99.47,123.73,95h-6.2l-1.94,4.49H114.2l5.69-13.33h1.5l5.72,13.33Zm-5-11.82L118,93.78h5.16Z"/><path class="cls-1" d="M140,94.55V93.34h9a7,7,0,0,1-7,6.36,7.1,7.1,0,0,1-7.15-6.9,7.14,7.14,0,0,1,13.43-3.11h-1.55A5.56,5.56,0,0,0,142,87.11a5.69,5.69,0,1,0,0,11.38,5.62,5.62,0,0,0,5.39-3.94Z"/><path class="cls-1" d="M151.86,99.47V86.14h1.26V99.47Z"/><path class="cls-1" d="M155.94,94.6a5.15,5.15,0,1,1,5.13,5.1A5.21,5.21,0,0,1,155.94,94.6Zm9-.12a3.89,3.89,0,1,0-3.89,4.09A4,4,0,0,0,165,94.48Z"/><path class="cls-1" d="M169.1,99.47V86.14h1.26v5.21h0a4.64,4.64,0,0,1,3.83-2,5.17,5.17,0,1,1,0,10.33,4.57,4.57,0,0,1-3.83-2h0v1.73Zm5.11-9a4,4,0,0,0,0,8.07,4,4,0,1,0,0-8.07Z"/><path class="cls-1" d="M181.81,94.6a5.15,5.15,0,1,1,5.13,5.1A5.21,5.21,0,0,1,181.81,94.6Zm9-.12A3.89,3.89,0,1,0,187,98.57,4,4,0,0,0,190.85,94.48Z"/><path class="cls-1" d="M208.18,99.47V93.69c0-1.88-.9-3.19-2.68-3.19s-2.68,1.3-2.68,3.22v5.75h-1.26V93.7c0-1.92-.94-3.2-2.69-3.2s-2.68,1.28-2.68,3.2v5.77h-1.26V89.62h1.26v1.13a3.06,3.06,0,0,1,2.68-1.38,3.68,3.68,0,0,1,3.32,1.89,3.76,3.76,0,0,1,3.31-1.89c2.54,0,3.94,1.87,3.94,4.19v5.91Z"/><path class="cls-1" d="M221.45,99.47V97.74h0a4.54,4.54,0,0,1-3.83,2,5.17,5.17,0,1,1,0-10.33,4.42,4.42,0,0,1,3.83,2h0V89.62h1.26v9.85Zm.07-4.92a4,4,0,0,0-4-4,4,4,0,1,0,4,4Z"/><path class="cls-1" d="M233.29,99.47V94c0-2.21-1.33-3.47-3.06-3.47a3.08,3.08,0,0,0-3.08,3.38v5.59h-1.26V89.62h1.26v1.26h0a3.52,3.52,0,0,1,3-1.51c2.72,0,4.34,1.87,4.34,4.6v5.5Z"/><path class="cls-1" d="M238.92,99.47V90.75h-2.07V89.62h2.07V86.14h1.26v3.48h2.36v1.13h-2.36v8.72Z"/><path class="cls-1" d="M244.77,88.41V86.14H246v2.27Zm0,11.06V89.62H246v9.85Z"/><path class="cls-1" d="M259,96.57a5.33,5.33,0,0,1-10.19-2.13,5.26,5.26,0,0,1,5.29-5.07,5.17,5.17,0,0,1,4.9,3.22h-1.39a3.86,3.86,0,0,0-3.47-2.09,4,4,0,1,0,0,8.07,3.78,3.78,0,0,0,3.47-2Z"/><path class="cls-1" d="M265.6,92.05a1.5,1.5,0,0,0-1.48-1.55A1.46,1.46,0,0,0,262.63,92c0,.72.5,1.22,1.71,1.62,2.39.79,2.86,1.74,2.86,3.15a2.83,2.83,0,0,1-3.1,3,2.94,2.94,0,0,1-3-3.08v-.07h1.26c0,1.31.7,2,1.76,2a1.65,1.65,0,0,0,1.84-1.77c0-1-.61-1.48-1.75-1.89-1.72-.63-2.82-1.12-2.82-2.81a2.69,2.69,0,0,1,2.81-2.73,2.63,2.63,0,0,1,2.68,2.68Z"/><path class="cls-1" d="M288.3,96a7,7,0,0,1-6.14,3.73,6.89,6.89,0,1,1,6.08-10.14h-1.49a5.64,5.64,0,0,0-4.63-2.43A5.68,5.68,0,1,0,286.8,96Z"/><path class="cls-1" d="M290.71,94.6a5.15,5.15,0,1,1,5.13,5.1A5.21,5.21,0,0,1,290.71,94.6Zm9-.12a3.89,3.89,0,1,0-3.88,4.09A4,4,0,0,0,299.74,94.48Z"/><path class="cls-1" d="M317.08,99.47V93.69c0-1.88-.9-3.19-2.68-3.19s-2.68,1.3-2.68,3.22v5.75h-1.27V93.7c0-1.92-.93-3.2-2.68-3.2s-2.68,1.28-2.68,3.2v5.77h-1.26V89.62h1.26v1.13a3.06,3.06,0,0,1,2.68-1.38,3.67,3.67,0,0,1,3.31,1.89,3.79,3.79,0,0,1,3.32-1.89c2.54,0,3.94,1.87,3.94,4.19v5.91Z"/><path class="cls-1" d="M321.58,102.92V89.62h1.26v1.73h0a4.55,4.55,0,0,1,3.84-2,5.17,5.17,0,1,1,0,10.33,4.6,4.6,0,0,1-3.84-2h0v5.18Zm5.11-12.42a4,4,0,0,0-3.92,4,4,4,0,1,0,3.92-4Z"/><path class="cls-1" d="M343.52,99.47V97.74h0a4.57,4.57,0,0,1-3.84,2,5.17,5.17,0,1,1,0-10.33,4.44,4.44,0,0,1,3.84,2h0V89.62h1.26v9.85Zm.07-4.92a4,4,0,0,0-4-4,4,4,0,1,0,4,4Z"/><path class="cls-1" d="M355.36,99.47V94c0-2.21-1.33-3.47-3.06-3.47a3.09,3.09,0,0,0-3.08,3.38v5.59H348V89.62h1.26v1.26h0a3.53,3.53,0,0,1,3-1.51c2.72,0,4.34,1.87,4.34,4.6v5.5Z"/><path class="cls-1" d="M361.07,102.92l1.71-3.78-3.84-9.52h1.34l3.13,7.85,3.35-7.85h1.33l-5.71,13.3Z"/><path class="cls-1" d="M70.51,13.22v8a24.32,24.32,0,0,1,9.88,2.27,30,30,0,0,1,9.13,7.41l-5.14,4.92Q78.5,28,70.05,28a17.09,17.09,0,0,0-12.72,5.23,17.46,17.46,0,0,0-5.14,12.88,18,18,0,0,0,17.34,18,14.44,14.44,0,0,0,9.57-3.58,12.73,12.73,0,0,0,4.74-8.65H71.91V45.06H91.66v1.58a32.56,32.56,0,0,1-1.27,9.54,20.34,20.34,0,0,1-4.18,7.18,21.48,21.48,0,0,1-15.7,7.46V79a32.94,32.94,0,0,0,0-65.78Z"/><path class="cls-1" d="M34,71.05v-1.5c0-6.77-5.81-7.42-6.05-7.45L26.63,62V29.08L28,29c.52-.05,5.14-.64,5.14-6.69v-1.5H66.88V13.22H26.52A10.74,10.74,0,0,1,15.78,24h0v7.2a2.26,2.26,0,0,1,.51-.08,2,2,0,1,1,0,3.91,2.24,2.24,0,0,1-.51-.07v9.5a1.81,1.81,0,0,1,.51-.08,2,2,0,1,1,0,3.91,1.81,1.81,0,0,1-.51-.08v9.5a2.24,2.24,0,0,1,.51-.07,2,2,0,1,1,0,3.91,2.26,2.26,0,0,1-.51-.08v6.81h0A10.74,10.74,0,0,1,26.52,79h20c9,0,20.34,0,20.36,0v-8Z"/><path class="cls-1" d="M58.68,23.79H36.07a8.79,8.79,0,0,1-6.45,7.93V59.36A9.69,9.69,0,0,1,37,68.05H58a25.08,25.08,0,0,1-5.9-4.45,24,24,0,0,1-7.15-17.46,24,24,0,0,1,7.28-17.65A25.1,25.1,0,0,1,58.68,23.79Z"/></svg>