<svg width="15" height="16" viewBox="0 0 15 16" fill="none" xmlns="http://www.w3.org/2000/svg">
<path d="M10.3432 7.8L14.6075 3.5783C15.1308 3.06023 15.1308 2.22028 14.6075 1.7018L13.6598 0.763547C13.1365 0.245484 12.2881 0.245484 11.7643 0.763547L7.5 4.98525L3.23565 0.763547C2.71236 0.245484 1.86392 0.245484 1.3402 0.763547L0.392472 1.7018C-0.130824 2.21986 -0.130824 3.05981 0.392472 3.5783L4.65682 7.8L0.392472 12.0217C-0.130824 12.5398 -0.130824 13.3797 0.392472 13.8982L1.3402 14.8365C1.86349 15.3545 2.71236 15.3545 3.23565 14.8365L7.5 10.6147L11.7643 14.8365C12.2876 15.3545 13.1365 15.3545 13.6598 14.8365L14.6075 13.8982C15.1308 13.3801 15.1308 12.5402 14.6075 12.0217L10.3432 7.8Z" fill="#C4C4C4"/>
</svg>